<?xml version="1.0" encoding="UTF-8"?>
<svg id="Layer_1" data-name="Layer 1" xmlns="http://www.w3.org/2000/svg" viewBox="0 0 2551.1 481.08">
  <defs>
    <style>
      .cls-1 {
        fill: #f9a61c;
      }

      .cls-2 {
        fill: #f15b25;
      }

      .cls-3 {
        fill: #c59c61;
      }

      .cls-4 {
        fill: #221915;
      }

    </style>
  </defs>
  <rect class="cls-4" x="1826.89" width="8.28" height="480.39"/>
  <g>
    <g>
      <path class="cls-3" d="m1963.32,469.1l7.16-8.53c6.49,5.62,13.08,8.81,21.41,8.81,7.36,0,12.01-3.49,12.01-8.53v-.19c0-4.84-2.71-7.46-15.3-10.37-14.44-3.49-22.57-7.75-22.57-20.24v-.2c0-11.62,9.69-19.66,23.15-19.66,9.88,0,17.73,3,24.61,8.52l-6.4,9.01c-6.1-4.55-12.2-6.97-18.4-6.97-6.98,0-11.04,3.58-11.04,8.04v.19c0,5.23,3.1,7.56,16.17,10.66,14.34,3.49,21.7,8.62,21.7,19.86v.2c0,12.69-9.97,20.24-24.21,20.24-10.37,0-20.15-3.58-28.28-10.85Z"/>
      <path class="cls-3" d="m2028.13,411.17h11.91v67.8h-11.91v-67.8Z"/>
      <path class="cls-3" d="m2055.73,411.17h11.04l36.32,46.89v-46.89h11.72v67.8h-9.98l-37.39-48.24v48.24h-11.72v-67.8Z"/>
      <path class="cls-3" d="m2126.84,445.26v-.19c0-19.28,14.44-35.07,34.97-35.07,12.5,0,20.05,4.36,26.54,10.56l-7.65,8.81c-5.42-5.03-11.23-8.43-18.98-8.43-12.88,0-22.37,10.66-22.37,23.93v.2c0,13.27,9.4,24.02,22.37,24.02,8.33,0,13.66-3.3,19.47-8.72l7.65,7.75c-7.07,7.36-14.82,12.01-27.51,12.01-19.76,0-34.48-15.41-34.48-34.87Z"/>
      <path class="cls-3" d="m2198.91,411.17h50.27v10.66h-38.36v17.63h34v10.65h-34v18.21h38.85v10.66h-50.76v-67.8Z"/>
    </g>
    <g>
      <path class="cls-3" d="m2291.43,423.74l-12.2,3.39-2.52-9.69,18.31-5.81h8.23v68.29h-11.82v-56.18Z"/>
      <path class="cls-3" d="m2355.85,448.82c-3.78,4.55-9.01,7.27-15.98,7.27-14.44,0-24.02-8.43-24.02-21.5v-.2c0-13.27,10.27-23.44,25.28-23.44,8.52,0,14.04,2.42,18.89,7.17,4.94,5.03,8.14,12.5,8.14,25.86v.2c0,21.8-10.75,36.91-29.06,36.91-9.4,0-15.98-3.39-21.7-8.14l6.49-9.1c5.13,4.26,9.69,6.39,15.5,6.39,12.01,0,16.37-12.4,16.47-21.41Zm-.48-14.92v-.19c0-7.07-5.52-12.5-14.14-12.5s-13.47,5.62-13.47,12.59v.2c0,7.07,5.43,12.11,13.85,12.11s13.75-5.62,13.75-12.21Z"/>
      <path class="cls-3" d="m2410.48,422.58h-34.1v-10.46h47.65v9.01l-30.51,58.79h-13.46l30.41-57.34Z"/>
      <path class="cls-3" d="m2429.67,470.52l23.35-19.86c9.3-7.94,12.69-12.2,12.69-18.3,0-6.68-4.74-10.56-10.94-10.56s-10.46,3.39-15.6,10.17l-8.53-6.68c6.49-9.01,12.88-14.14,24.99-14.14,13.27,0,22.37,8.13,22.37,20.24v.19c0,10.66-5.62,16.47-17.63,26.25l-13.95,11.62h32.26v10.46h-49.02v-9.4Z"/>
    </g>
    <path class="cls-3" d="m1961.5,297.72l35.04-41.03c25.82,23.97,53.02,38.73,82.98,38.73,38.73,0,64.09-22.13,64.09-55.79v-.92c0-32.73-27.66-53.48-66.85-53.48-23.05,0-42.87,6.45-59.47,14.29l-34.12-22.59,9.22-158.13h193.17v50.25h-144.3l-5.07,75.61c15.21-5.53,29.51-9.22,51.17-9.22,62.7,0,112.49,33.19,112.49,101.43v.92c0,65.93-48.41,109.26-119.86,109.26-49.33,0-88.06-19.82-118.49-49.33Z"/>
    <path class="cls-3" d="m2461.88,95.82c-22.72-49.5-66.36-82.58-122.83-82.58-84.8,0-141.06,74.7-141.06,166.9v.95c0,92.19,55.31,165.94,140.16,165.94s140.8-74.33,141.06-166.21c0,0,2.64-47.28-17.33-85.01Zm-41.21,85.27c0,63.13-31.38,114.8-81.62,114.8s-82.52-52.14-82.52-115.75v-.9c0-64.08,31.8-114.8,81.63-114.8,29.27,0,52.62,18.02,66.94,45.81,0,0,14.85,25.46,15.59,70.58v.26Z"/>
    <polygon class="cls-3" points="2523.77 40.77 2523.77 13.25 2498.35 13.25 2498.35 40.77 2471.02 40.77 2471.02 66.09 2498.35 66.09 2498.35 93.72 2523.77 93.72 2523.77 66.09 2551.1 66.09 2551.1 40.77 2523.77 40.77"/>
  </g>
  <g>
    <g>
      <rect class="cls-1" x="-1.69" y="93.56" width="620.68" height="63.09" transform="translate(-21.2 79.14) rotate(-14.13)"/>
      <rect class="cls-2" x="151.25" y="183.88" width="469.03" height="112.55" transform="translate(27.21 519.31) rotate(-69.81)"/>
    </g>
    <g>
      <g>
        <path class="cls-4" d="m743.11,392.92v-.48c0-47.96,35.91-87.24,87-87.24,31.09,0,49.89,10.84,66.03,26.27l-1.54,1.77c-8.83,10.18-23.65,13.29-35.45,6.78-8.65-4.78-18.17-7.58-29.28-7.58-32.05,0-55.67,26.51-55.67,59.52v.48c0,33.02,23.37,59.77,55.67,59.77,12.09,0,21.64-2.79,30.36-7.79,11.79-6.76,26.53-5.33,36.08,4.34l1.03,1.04c-17.59,18.32-36.87,29.88-68.44,29.88-49.16,0-85.79-38.32-85.79-86.76Z"/>
        <path class="cls-4" d="m932.89,308.1h125.56c0,14.91-12.08,26.99-26.99,26.99h-68.92v46.03h85.07c0,14.91-12.08,26.99-26.99,26.99h-58.08v68.68h-29.64v-168.69Z"/>
        <path class="cls-4" d="m1076.48,452.21l.15-.18c9.28-11.04,24.9-13.73,37.72-7.12,10.11,5.21,20.9,8.02,33.22,8.02,18.32,0,29.88-8.67,29.88-21.21v-.48c0-12.05-6.75-18.56-38.08-25.79-35.91-8.68-56.15-19.28-56.15-50.37v-.48c0-28.92,24.1-48.92,57.6-48.92,24.58,0,44.1,7.47,61.21,21.21h0c-8.23,11.6-23.41,15.87-36.52,10.37-8.34-3.5-16.72-5.31-25.17-5.31-17.35,0-27.47,8.92-27.47,20v.48c0,13.01,7.71,18.8,40.25,26.51,35.67,8.68,53.98,21.45,53.98,49.4v.48c0,31.57-24.82,50.36-60.25,50.36-25.78,0-50.13-8.92-70.37-26.99Z"/>
        <path class="cls-4" d="m1237.43,392.92v-.48c0-47.23,36.15-87.24,87-87.24,29.4,0,47.47,8.19,64.83,22.89l-4.09,4.87c-7.74,9.23-20.72,11.4-31.5,6.03-8.38-4.18-17.94-6.56-30.45-6.56-31.09,0-54.71,27.23-54.71,59.52v.48c0,34.7,22.9,60.25,57.36,60.25,15.9,0,30.36-5.06,40.73-12.77v-31.57h-17.35c-14.24,0-25.78-11.54-25.78-25.78h71.81v70.85c-16.63,14.22-40.49,26.27-70.37,26.27-52.78,0-87.48-37.6-87.48-86.76Z"/>
      </g>
      <g>
        <path class="cls-4" d="m808.24,201.47c-3.98,3.73-9.71,5.73-16.19,5.73h-27.15c-4.73,0-9.46-2.49-12.95-6.23-3.74-3.73-5.98-8.47-5.98-13.45V43.07c0-6.23,2.74-10.96,6.72-13.95,3.74-2.99,8.72-4.48,13.7-4.48h28.14c4.98,0,9.72,1.74,13.2,5.23,3.49,3.24,5.73,8.22,5.73,14.45v144.21c0,5.48-1.99,9.71-5.23,12.95Zm-15.44-154.42c0-2.74-1.99-4.73-4.73-4.73h-16.19c-2.99,0-4.48,2.24-4.48,4.98v59.28h25.4v-59.53Zm0,77.46h-25.4v59.53c0,2.74,2.49,5.48,4.73,5.48h16.44c2.74,0,4.23-1.99,4.23-4.73v-60.27Zm139.97,23.88v58.31c0,5.98-2.24,12.7-7.22,17.44-3.74,3.73-9.22,6.22-16.44,6.22h-23.91l-7.22-16.93h26.4c2.89,0,5.23-2.34,5.23-5.23v-59.8h-88.17c0-9.77,7.92-17.68,17.68-17.68h70.49v-16.91h23.16v16.91h25.16c0,9.77-7.92,17.68-17.68,17.68h-7.47Zm-108.34-43.56h0c0-9.49,7.69-17.18,17.18-17.18h36.61v-31.88h-47.57c0-9.77,7.92-17.68,17.68-17.68h29.89V12.68h22.91v25.4h44.83v.5c0,9.49-7.69,17.18-17.18,17.18h-27.65v31.88h53.8c0,9.49-7.69,17.18-17.18,17.18h-113.33Zm38.61,91.65c-10.96-12.45-17.31-21.25-25.27-34.94h28.14c8.72,13.45,17.56,22.99,30.25,34.94h-33.12Z"/>
        <path class="cls-4" d="m1183.84,76.44v-24.16c0-2.74-1.99-5.48-6.48-5.48h-157.16c-3.48,0-5.73,1.99-5.73,5.73v1.25c0,12.52-10.15,22.67-22.67,22.67h0v-24.66c0-5.98,1.99-11.71,6.22-15.94,3.74-3.49,8.97-5.73,16.19-5.73h71.98c-3.73-5.48-6.72-11.46-9.96-17.18h29.14c2.74,5.98,6.22,11.71,10.21,17.44h69.99c6.23,0,11.71,2.74,15.69,7.22,3.24,3.73,5.23,8.97,5.23,14.69v1.5c0,12.52-10.15,22.67-22.66,22.67h0Zm9.21,147.19c-3.74,3.99-8.72,6.23-13.7,6.23h-159.65c-5.73,0-11.21-2.74-14.95-7.22-3.24-3.99-5.23-9.46-5.23-15.69v-36.36c0-6.48,1.99-12.45,6.23-16.69,3.73-3.49,8.97-5.98,16.19-5.98h154.67c4.98,0,12.7,2.24,17.44,8.22,2.99,3.48,4.98,7.97,4.98,14.2v38.85c0,5.73-2.49,10.71-5.98,14.44Zm-20.42-93.4c-2.99,2.99-6.97,4.99-11.21,4.99h-125.78c-3.74,0-7.72-1.99-10.71-5.23-2.49-2.74-4.48-6.48-4.48-10.46v-13.45c0-5.73,2.24-9.97,5.48-12.7,3.24-2.99,7.72-4.48,12.2-4.48h122.04c4.73,0,9.71,1.5,12.95,5.23,2.74,2.74,4.48,6.72,4.48,12.45v13.95c0,3.24-1.99,6.97-4.98,9.71Zm-84.43,34.37h-61.77c-1.25,0-3.99,1.25-3.99,3.49v12.7h65.75v-16.19Zm0,32.88h-65.75v12.45c0,2.49,1.74,3.99,3.99,3.99h61.77v-16.44Zm-57.78-120.55h0c0-9.08,7.36-16.44,16.44-16.44h121.04c0,9.08-7.36,16.44-16.44,16.44h-121.04Zm124.78,33.13c0-2.74-1.24-4.99-3.98-4.99h-103.61c-2.99,0-4.48,1.74-4.48,2.99v6.97c0,2.49,1.74,3.98,3.74,3.98h104.36c2.24,0,3.98-1.24,3.98-3.73v-5.23Zm21.42,59.02c0-2.49-2.49-4.48-4.98-4.48h-61.02v16.19h66v-11.71Zm0,28.4h-66v16.44h60.77c2.99,0,5.23-2.49,5.23-4.48v-11.95Z"/>
        <path class="cls-4" d="m1488.2,33.6h0c0-9.08,7.36-16.44,16.44-16.44h96.89c0,9.08-7.36,16.44-16.44,16.44h-96.89Zm107.35,192.03c-3.49,3.74-8.72,5.73-14.7,5.73h-9.54l-6.72-16.94h8.29c2.49,0,5.23-1.99,5.23-5.48v-46.58h-14.44c-5.48,0-9.21-1.74-11.71-4.73-2.24-2.99-3.48-7.22-3.48-12.7v-16.44h-7.22c-.5,12.2-2.99,23.66-8.22,33.87h-20.67v68.99h-21.67v-96.89c0-7.72,1.99-13.2,5.73-16.93,3.74-3.49,9.46-5.23,17.19-5.23h65.25c6.97,0,11.96,1.74,15.69,5.23,3.74,3.73,5.48,9.22,5.48,16.19v78.7c0,5.73-1.74,10.21-4.48,13.2Zm-8.97-131.5c-3.74,3.73-9.21,5.73-16.69,5.73h-50.81c-6.48,0-11.95-1.99-15.69-5.73-3.48-3.49-5.48-8.72-5.48-15.69v-13.2c0-6.48,1.74-11.71,5.97-15.19,3.24-2.74,7.97-4.23,14.45-4.23h52.3c6.22,0,11.21,1.5,14.69,4.48,3.74,3.24,5.98,8.22,5.98,15.44v14.44c0,5.98-1.5,10.71-4.73,13.95Zm-68.24,34.37c-2.74,0-5.98,2.49-5.98,5.48v24.41c5.98-8.72,9.46-18.68,9.21-29.89h-3.24Zm37.61,57.78v39.35h-21.17v-39.35h-17.19v-15.94h55.3v15.94h-16.94Zm12.7-118.31c0-2.99-2.24-5.73-5.48-5.73h-37.11c-2.99,0-5.23,1.99-5.23,5.48v9.71c0,3.49,2.24,5.73,5.48,5.73h36.86c3.49,0,5.48-1.5,5.48-5.23v-9.96Zm9.46,66c0-1.99-2.24-5.48-5.98-5.48h-3.98v13.2c0,3.24,2.74,4.74,5.23,4.74h4.73v-12.46Zm106.35,96.89c-1.5-4.23-3.74-13.45-4.48-18.44-23.41,6.98-50.56,14.45-74.97,19.68v-19.68c11.95-2.24,27.15-5.23,37.61-7.97v-49.07h-12.95c-6.48,0-11.71-1.99-15.44-5.97-3.49-3.99-5.48-9.46-5.48-16.44v-62.02c0-8.46,2.49-13.95,6.72-17.43,4.23-3.24,10.46-4.48,17.68-4.48h9.46v-20.24c0-8.63,7-15.62,15.62-15.62h6.79v35.62l12.7.25c7.47.25,12.7,2.24,16.44,6.48,3.74,4.23,5.48,10.46,5.48,18.43v59.53c0,6.72-1.74,12.2-4.98,15.94-3.74,3.99-9.22,5.97-16.93,5.97h-12.7v42.34c3.24-.25,7.97-1.74,10.71-2.74-.58-3.49-1.24-7.32-1.9-11.14-1.49-8.62,5.15-16.51,13.9-16.51h4.19c1.66,12.12,4.76,28,8.71,42.78,2.79,10.45-4.95,20.73-15.76,20.73h-.42Zm-41.85-165.13h-6.97c-2.99,0-6.23,3.24-6.23,6.48v59.28c0,4.48,2.99,7.47,6.23,7.47h6.97v-73.22Zm35.62,5.73c0-2.99-2.74-5.73-5.98-5.73h-7.22v73.22h7.47c3.24,0,5.73-2.24,5.73-6.72v-60.77Z"/>
        <g>
          <path class="cls-4" d="m1285.62,190.57c-5.69-13.19-10.42-26.78-14.73-40.64h8.26c9.07,0,17.06,5.71,20.24,14.2,5.06,13.53,11.22,26.57,18.07,39.34h-12.06c-8.57,0-16.4-5.04-19.79-12.91Z"/>
          <path class="cls-4" d="m1390.94,203.47h-13.23c8.31-12.46,13.75-26.07,18.29-40.06,2.61-8.05,10.11-13.49,18.57-13.49h8.23c-3.62,14.1-8.26,27.91-13.7,41.32-3,7.39-10.18,12.23-18.15,12.23Z"/>
          <path class="cls-4" d="m1240.04,87.03c6.86,8.55,19.36,9.92,27.91,3.06l79.74-64,79.74,64c8.55,6.86,21.04,5.49,27.91-3.06L1347.68.63l-107.64,86.4Z"/>
          <path class="cls-4" d="m1236.14,93.87,154.61-5.73h-31.08v33.12h85.68c0,9.9-8.03,17.93-17.93,17.93h-67.75v74.22h96.89c0,9.9-8.03,17.93-17.93,17.93h-199.5c0-9.9,8.03-17.93,17.93-17.93h79.7v-74.22h-86.18c0-9.9,8.03-17.93,17.93-17.93h68.24v-33.12h-52.8,5.34c0-9.9,8.03-17.93,17.93-17.93h101.46c0,9.9-8.03,17.93-17.93,17.93Z"/>
        </g>
      </g>
    </g>
  </g>
</svg>
